<?xml version="1.0" encoding="UTF-8"?>
<!DOCTYPE svg PUBLIC "-//W3C//DTD SVG 1.1//EN" "http://www.w3.org/Graphics/SVG/1.1/DTD/svg11.dtd">
<svg xmlns="http://www.w3.org/2000/svg" version="1.1" width="429px" height="359px" style="shape-rendering:geometricPrecision; text-rendering:geometricPrecision; image-rendering:optimizeQuality; fill-rule:evenodd; clip-rule:evenodd" xmlns:xlink="http://www.w3.org/1999/xlink">
<g><path style="opacity:1" fill="#e9f1ee" d="M -0.5,-0.5 C 70.8333,-0.5 142.167,-0.5 213.5,-0.5C 211.735,0.461384 209.735,0.794717 207.5,0.5C 193.62,1.58474 180.287,4.58474 167.5,9.5C 164.432,10.0218 161.432,10.8551 158.5,12C 154.258,13.8984 150.258,16.0651 146.5,18.5C 134.352,23.7382 123.352,30.7382 113.5,39.5C 71.2031,75.1038 49.5365,120.771 48.5,176.5C 49.3634,189.605 51.0301,202.605 53.5,215.5C 57.4525,230.024 62.7859,244.024 69.5,257.5C 75.0353,268.587 82.0353,278.587 90.5,287.5C 97.2551,296.591 105.255,304.258 114.5,310.5C 122.317,317.637 130.983,323.637 140.5,328.5C 149.965,333.895 159.965,338.228 170.5,341.5C 185.394,346.538 200.727,349.205 216.5,349.5C 228.849,350.344 241.182,349.678 253.5,347.5C 315.452,335.37 359.619,300.703 386,243.5C 406.045,191.784 403.712,141.117 379,91.5C 375.22,84.2491 370.72,77.5825 365.5,71.5C 359.291,61.6199 351.625,52.9533 342.5,45.5C 335.043,38.0466 326.71,31.7133 317.5,26.5C 303.901,17.7042 289.234,11.0375 273.5,6.5C 262.728,3.39195 251.728,1.39195 240.5,0.5C 238.901,0.767809 237.568,0.434475 236.5,-0.5C 300.5,-0.5 364.5,-0.5 428.5,-0.5C 428.5,119.167 428.5,238.833 428.5,358.5C 285.5,358.5 142.5,358.5 -0.5,358.5C -0.5,238.833 -0.5,119.167 -0.5,-0.5 Z"/></g>
<g><path style="opacity:1" fill="#2d775a" d="M 213.5,-0.5 C 221.167,-0.5 228.833,-0.5 236.5,-0.5C 237.568,0.434475 238.901,0.767809 240.5,0.5C 238.103,6.18394 235.603,11.8506 233,17.5C 231.989,18.3366 230.822,18.67 229.5,18.5C 219.03,18.5529 208.696,19.5529 198.5,21.5C 201.688,14.6112 204.688,7.61121 207.5,0.5C 209.735,0.794717 211.735,0.461384 213.5,-0.5 Z"/></g>
<g><path style="opacity:1" fill="#256951" d="M 207.5,0.5 C 204.688,7.61121 201.688,14.6112 198.5,21.5C 183.729,23.5641 169.729,27.8974 156.5,34.5C 159.911,26.0144 163.578,17.6811 167.5,9.5C 180.287,4.58474 193.62,1.58474 207.5,0.5 Z"/></g>
<g><path style="opacity:1" fill="#348461" d="M 240.5,0.5 C 251.728,1.39195 262.728,3.39195 273.5,6.5C 271.41,12.7773 268.743,18.7773 265.5,24.5C 253.539,21.5099 241.539,19.5099 229.5,18.5C 230.822,18.67 231.989,18.3366 233,17.5C 235.603,11.8506 238.103,6.18394 240.5,0.5 Z"/></g>
<g><path style="opacity:1" fill="#21614c" d="M 167.5,9.5 C 163.578,17.6811 159.911,26.0144 156.5,34.5C 148.644,38.5921 140.977,42.9254 133.5,47.5C 137.576,37.6845 141.909,28.0179 146.5,18.5C 150.258,16.0651 154.258,13.8984 158.5,12C 161.432,10.8551 164.432,10.0218 167.5,9.5 Z"/></g>
<g><path style="opacity:1" fill="#3c946b" d="M 273.5,6.5 C 289.234,11.0375 303.901,17.7042 317.5,26.5C 314.471,31.883 311.804,37.5496 309.5,43.5C 295.714,35.2342 281.047,28.9008 265.5,24.5C 268.743,18.7773 271.41,12.7773 273.5,6.5 Z"/></g>
<g><path style="opacity:1" fill="#e8f0ed" d="M 229.5,18.5 C 241.539,19.5099 253.539,21.5099 265.5,24.5C 281.047,28.9008 295.714,35.2342 309.5,43.5C 317.495,49.8265 325.495,56.1598 333.5,62.5C 341.493,71.8356 349.16,81.5023 356.5,91.5C 386.249,142.82 388.082,195.154 362,248.5C 339.406,288.04 306.24,314.04 262.5,326.5C 250.298,328.954 237.964,330.287 225.5,330.5C 209.39,330.86 193.723,328.526 178.5,323.5C 168.306,320.099 158.306,316.099 148.5,311.5C 139.637,306.235 131.304,300.235 123.5,293.5C 114.438,285.44 106.105,276.774 98.5,267.5C 91.7275,257.623 85.7275,247.289 80.5,236.5C 74.7667,220.567 70.7667,204.234 68.5,187.5C 66.5059,129.506 88.1726,82.8389 133.5,47.5C 140.977,42.9254 148.644,38.5921 156.5,34.5C 169.729,27.8974 183.729,23.5641 198.5,21.5C 208.696,19.5529 219.03,18.5529 229.5,18.5 Z"/></g>
<g><path style="opacity:1" fill="#358362" d="M 211.5,25.5 C 228.829,24.3892 245.829,26.0559 262.5,30.5C 262.167,31.1667 261.833,31.8333 261.5,32.5C 245.028,28.9886 228.361,27.6552 211.5,28.5C 211.5,27.5 211.5,26.5 211.5,25.5 Z"/></g>
<g><path style="opacity:1" fill="#e9f1ee" d="M 211.5,28.5 C 228.361,27.6552 245.028,28.9886 261.5,32.5C 276.562,37.0803 290.895,43.4136 304.5,51.5C 323.534,64.535 339.2,80.8684 351.5,100.5C 373.259,141.698 376.426,184.365 361,228.5C 342.792,271.545 311.625,300.545 267.5,315.5C 238.829,323.426 210.163,323.426 181.5,315.5C 161.761,308.63 143.761,298.63 127.5,285.5C 109.349,268.521 95.6824,248.521 86.5,225.5C 69.4822,173.103 77.6489,125.103 111,81.5C 122.54,68.1157 135.707,56.7824 150.5,47.5C 169.533,37.3195 189.866,30.9862 211.5,28.5 Z"/></g>
<g><path style="opacity:1" fill="#1c5847" d="M 146.5,18.5 C 141.909,28.0179 137.576,37.6845 133.5,47.5C 88.1726,82.8389 66.5059,129.506 68.5,187.5C 63.8807,197.014 58.8807,206.347 53.5,215.5C 51.0301,202.605 49.3634,189.605 48.5,176.5C 49.7498,176.423 50.5831,175.756 51,174.5C 71.8285,129.509 92.6618,84.509 113.5,39.5C 123.352,30.7382 134.352,23.7382 146.5,18.5 Z"/></g>
<g><path style="opacity:1" fill="#2a6d55" d="M 211.5,25.5 C 211.5,26.5 211.5,27.5 211.5,28.5C 189.866,30.9862 169.533,37.3195 150.5,47.5C 150.5,46.8333 150.5,46.1667 150.5,45.5C 169.138,34.081 189.472,27.4143 211.5,25.5 Z"/></g>
<g><path style="opacity:1" fill="#44a375" d="M 317.5,26.5 C 326.71,31.7133 335.043,38.0466 342.5,45.5C 338.953,50.7511 335.953,56.4178 333.5,62.5C 325.495,56.1598 317.495,49.8265 309.5,43.5C 311.804,37.5496 314.471,31.883 317.5,26.5 Z"/></g>
<g><path style="opacity:1" fill="#195343" d="M 113.5,39.5 C 92.6618,84.509 71.8285,129.509 51,174.5C 50.5831,175.756 49.7498,176.423 48.5,176.5C 49.5365,120.771 71.2031,75.1038 113.5,39.5 Z"/></g>
<g><path style="opacity:1" fill="#42976f" d="M 262.5,30.5 C 278.622,34.3032 293.289,40.9699 306.5,50.5C 305.833,50.8333 305.167,51.1667 304.5,51.5C 290.895,43.4136 276.562,37.0803 261.5,32.5C 261.833,31.8333 262.167,31.1667 262.5,30.5 Z"/></g>
<g><path style="opacity:1" fill="#4bb07c" d="M 342.5,45.5 C 351.625,52.9533 359.291,61.6199 365.5,71.5C 361.972,77.8916 358.972,84.5583 356.5,91.5C 349.16,81.5023 341.493,71.8356 333.5,62.5C 335.953,56.4178 338.953,50.7511 342.5,45.5 Z"/></g>
<g><path style="opacity:1" fill="#23604c" d="M 150.5,45.5 C 150.5,46.1667 150.5,46.8333 150.5,47.5C 135.707,56.7824 122.54,68.1157 111,81.5C 77.6489,125.103 69.4822,173.103 86.5,225.5C 85.8333,226.167 85.1667,226.833 84.5,227.5C 66.4066,174.316 74.2399,125.316 108,80.5C 119.923,66.0739 134.09,54.4073 150.5,45.5 Z"/></g>
<g><path style="opacity:1" fill="#24674f" d="M 153.5,81.5 C 148.772,91.9555 143.772,102.289 138.5,112.5C 132.702,107.203 127.035,101.703 121.5,96C 128.746,88.3497 136.08,80.683 143.5,73C 144.635,72.2506 145.635,72.4173 146.5,73.5C 148.907,76.2314 151.241,78.8981 153.5,81.5 Z"/></g>
<g><path style="opacity:1" fill="#429f72" d="M 307.5,82.5 C 305.263,88.1415 302.597,93.6415 299.5,99C 299.833,99.3333 300.167,99.6667 300.5,100C 291.079,119.526 281.412,138.693 271.5,157.5C 269.918,151.004 267.252,145.004 263.5,139.5C 274.866,119.104 284.866,98.1041 293.5,76.5C 294.52,74.648 296.02,73.3147 298,72.5C 301.348,75.6813 304.515,79.0146 307.5,82.5 Z"/></g>
<g><path style="opacity:1" fill="#348662" d="M 220.5,85.5 C 225.88,85.3243 231.213,85.6576 236.5,86.5C 232.03,97.4385 227.03,108.105 221.5,118.5C 215.624,118.535 209.957,119.535 204.5,121.5C 209.281,109.271 214.614,97.2706 220.5,85.5 Z"/></g>
<g><path style="opacity:1" fill="#4bad7b" d="M 306.5,50.5 C 325.84,62.536 341.174,78.536 352.5,98.5C 352.167,99.1667 351.833,99.8333 351.5,100.5C 339.2,80.8684 323.534,64.535 304.5,51.5C 305.167,51.1667 305.833,50.8333 306.5,50.5 Z"/></g>
<g><path style="opacity:1" fill="#317f5e" d="M 220.5,85.5 C 214.614,97.2706 209.281,109.271 204.5,121.5C 181.347,130.006 169.347,146.672 168.5,171.5C 168.221,178.377 169.221,185.044 171.5,191.5C 162.245,209.015 153.745,227.015 146,245.5C 143.327,251.52 140.16,257.187 136.5,262.5C 131.395,257.559 126.395,252.393 121.5,247C 130.86,237.64 140.194,228.306 149.5,219C 146.837,215.507 144.837,211.673 143.5,207.5C 162.406,168.019 181.072,128.352 199.5,88.5C 206.174,86.1291 213.174,85.1291 220.5,85.5 Z"/></g>
<g><path style="opacity:1" fill="#2d795b" d="M 199.5,88.5 C 181.072,128.352 162.406,168.019 143.5,207.5C 139.799,201.057 137.465,194.057 136.5,186.5C 150.779,157.179 164.779,127.679 178.5,98C 178.272,97.6012 177.938,97.4346 177.5,97.5C 184.143,92.9489 191.476,89.9489 199.5,88.5 Z"/></g>
<g><path style="opacity:1" fill="#398f68" d="M 236.5,86.5 C 244.613,87.9816 252.279,90.6483 259.5,94.5C 254.819,104.526 250.153,114.526 245.5,124.5C 237.985,120.664 229.985,118.664 221.5,118.5C 227.03,108.105 232.03,97.4385 236.5,86.5 Z"/></g>
<g><path style="opacity:1" fill="#2a7256" d="M 153.5,81.5 C 159.962,86.7948 165.962,92.6281 171.5,99C 173.695,99.4094 175.695,98.9094 177.5,97.5C 177.938,97.4346 178.272,97.6012 178.5,98C 164.779,127.679 150.779,157.179 136.5,186.5C 132.732,163.931 137.065,143.098 149.5,124C 145.657,120.324 141.991,116.491 138.5,112.5C 143.772,102.289 148.772,91.9555 153.5,81.5 Z"/></g>
<g><path style="opacity:1" fill="#3e986d" d="M 293.5,76.5 C 284.866,98.1041 274.866,119.104 263.5,139.5C 258.359,133.578 252.359,128.578 245.5,124.5C 250.153,114.526 254.819,104.526 259.5,94.5C 262.513,95.3383 265.18,96.8383 267.5,99C 268.5,99.6667 269.5,99.6667 270.5,99C 278.035,91.2975 285.702,83.7975 293.5,76.5 Z"/></g>
<g><path style="opacity:1" fill="#55c287" d="M 365.5,71.5 C 370.72,77.5825 375.22,84.2491 379,91.5C 403.712,141.117 406.045,191.784 386,243.5C 359.619,300.703 315.452,335.37 253.5,347.5C 256.939,340.715 259.939,333.715 262.5,326.5C 306.24,314.04 339.406,288.04 362,248.5C 388.082,195.154 386.249,142.82 356.5,91.5C 358.972,84.5583 361.972,77.8916 365.5,71.5 Z"/></g>
<g><path style="opacity:1" fill="#e9f1ee" d="M 221.5,118.5 C 229.985,118.664 237.985,120.664 245.5,124.5C 252.359,128.578 258.359,133.578 263.5,139.5C 267.252,145.004 269.918,151.004 271.5,157.5C 277.352,185.123 268.019,205.789 243.5,219.5C 234.467,223.362 225.133,224.695 215.5,223.5C 210.73,223.308 206.063,222.475 201.5,221C 197.377,219.039 193.377,216.873 189.5,214.5C 182.004,208.004 176.004,200.338 171.5,191.5C 169.221,185.044 168.221,178.377 168.5,171.5C 169.347,146.672 181.347,130.006 204.5,121.5C 209.957,119.535 215.624,118.535 221.5,118.5 Z"/></g>
<g><path style="opacity:1" fill="#45a676" d="M 307.5,82.5 C 312.298,86.7967 316.965,91.2967 321.5,96C 312.214,104.453 303.047,113.286 294,122.5C 293.333,123.5 293.333,124.5 294,125.5C 296.372,128.91 298.205,132.577 299.5,136.5C 280.425,175.346 262.091,214.679 244.5,254.5C 238.617,255.987 232.617,256.987 226.5,257.5C 232.167,244.833 237.833,232.167 243.5,219.5C 268.019,205.789 277.352,185.123 271.5,157.5C 281.412,138.693 291.079,119.526 300.5,100C 300.167,99.6667 299.833,99.3333 299.5,99C 302.597,93.6415 305.263,88.1415 307.5,82.5 Z"/></g>
<g><path style="opacity:1" fill="#48ab79" d="M 299.5,136.5 C 302.804,143.078 305.137,150.078 306.5,157.5C 292.307,186.555 278.64,215.888 265.5,245.5C 258.853,249.324 251.853,252.324 244.5,254.5C 262.091,214.679 280.425,175.346 299.5,136.5 Z"/></g>
<g><path style="opacity:1" fill="#58c289" d="M 352.5,98.5 C 373.879,134.321 379.379,172.654 369,213.5C 355.889,259.206 327.722,292.04 284.5,312C 278.981,314.34 273.314,316.173 267.5,317.5C 267.5,316.833 267.5,316.167 267.5,315.5C 311.625,300.545 342.792,271.545 361,228.5C 376.426,184.365 373.259,141.698 351.5,100.5C 351.833,99.8333 352.167,99.1667 352.5,98.5 Z"/></g>
<g><path style="opacity:1" fill="#4cb17d" d="M 306.5,157.5 C 309.52,179.582 305.187,200.082 293.5,219C 293.978,220.303 294.645,221.469 295.5,222.5C 290.785,232.93 285.785,243.264 280.5,253.5C 277.036,250.538 273.703,247.371 270.5,244C 268.505,243.387 266.838,243.887 265.5,245.5C 278.64,215.888 292.307,186.555 306.5,157.5 Z"/></g>
<g><path style="opacity:1" fill="#368964" d="M 171.5,191.5 C 176.004,200.338 182.004,208.004 189.5,214.5C 184.77,224.292 179.77,233.959 174.5,243.5C 173.883,243.389 173.383,243.056 173,242.5C 163.803,251.363 154.969,260.53 146.5,270C 142.284,268.986 138.951,266.486 136.5,262.5C 140.16,257.187 143.327,251.52 146,245.5C 153.745,227.015 162.245,209.015 171.5,191.5 Z"/></g>
<g><path style="opacity:1" fill="#23654e" d="M 68.5,187.5 C 70.7667,204.234 74.7667,220.567 80.5,236.5C 78.0896,244.327 74.4229,251.327 69.5,257.5C 62.7859,244.024 57.4525,230.024 53.5,215.5C 58.8807,206.347 63.8807,197.014 68.5,187.5 Z"/></g>
<g><path style="opacity:1" fill="#419e71" d="M 243.5,219.5 C 237.833,232.167 232.167,244.833 226.5,257.5C 217.198,257.953 208.198,256.953 199.5,254.5C 200.376,254.631 201.043,254.298 201.5,253.5C 206.725,243.719 211.392,233.719 215.5,223.5C 225.133,224.695 234.467,223.362 243.5,219.5 Z"/></g>
<g><path style="opacity:1" fill="#3c946b" d="M 189.5,214.5 C 193.377,216.873 197.377,219.039 201.5,221C 206.063,222.475 210.73,223.308 215.5,223.5C 211.392,233.719 206.725,243.719 201.5,253.5C 201.043,254.298 200.376,254.631 199.5,254.5C 190.32,252.559 181.986,248.892 174.5,243.5C 179.77,233.959 184.77,224.292 189.5,214.5 Z"/></g>
<g><path style="opacity:1" fill="#52bc84" d="M 295.5,222.5 C 304.022,230.856 312.688,239.023 321.5,247C 313.645,254.855 305.812,262.688 298,270.5C 291.675,265.342 285.842,259.675 280.5,253.5C 285.785,243.264 290.785,232.93 295.5,222.5 Z"/></g>
<g><path style="opacity:1" fill="#297256" d="M 80.5,236.5 C 85.7275,247.289 91.7275,257.623 98.5,267.5C 96.0414,274.201 93.3747,280.867 90.5,287.5C 82.0353,278.587 75.0353,268.587 69.5,257.5C 74.4229,251.327 78.0896,244.327 80.5,236.5 Z"/></g>
<g><path style="opacity:1" fill="#327c5d" d="M 86.5,225.5 C 95.6824,248.521 109.349,268.521 127.5,285.5C 126.662,285.842 126.328,286.508 126.5,287.5C 107.417,271.079 93.4168,251.079 84.5,227.5C 85.1667,226.833 85.8333,226.167 86.5,225.5 Z"/></g>
<g><path style="opacity:1" fill="#307e5e" d="M 98.5,267.5 C 106.105,276.774 114.438,285.44 123.5,293.5C 120.724,299.391 117.724,305.058 114.5,310.5C 105.255,304.258 97.2551,296.591 90.5,287.5C 93.3747,280.867 96.0414,274.201 98.5,267.5 Z"/></g>
<g><path style="opacity:1" fill="#368a65" d="M 123.5,293.5 C 131.304,300.235 139.637,306.235 148.5,311.5C 145.471,316.883 142.804,322.55 140.5,328.5C 130.983,323.637 122.317,317.637 114.5,310.5C 117.724,305.058 120.724,299.391 123.5,293.5 Z"/></g>
<g><path style="opacity:1" fill="#42966f" d="M 127.5,285.5 C 143.761,298.63 161.761,308.63 181.5,315.5C 181.5,316.167 181.5,316.833 181.5,317.5C 160.616,311.897 142.283,301.897 126.5,287.5C 126.328,286.508 126.662,285.842 127.5,285.5 Z"/></g>
<g><path style="opacity:1" fill="#4fb07e" d="M 181.5,315.5 C 210.163,323.426 238.829,323.426 267.5,315.5C 267.5,316.167 267.5,316.833 267.5,317.5C 238.831,326.798 210.165,326.798 181.5,317.5C 181.5,316.833 181.5,316.167 181.5,315.5 Z"/></g>
<g><path style="opacity:1" fill="#3e976d" d="M 148.5,311.5 C 158.306,316.099 168.306,320.099 178.5,323.5C 175.648,329.377 172.982,335.377 170.5,341.5C 159.965,338.228 149.965,333.895 140.5,328.5C 142.804,322.55 145.471,316.883 148.5,311.5 Z"/></g>
<g><path style="opacity:1" fill="#45a576" d="M 178.5,323.5 C 193.723,328.526 209.39,330.86 225.5,330.5C 222.301,336.777 219.301,343.111 216.5,349.5C 200.727,349.205 185.394,346.538 170.5,341.5C 172.982,335.377 175.648,329.377 178.5,323.5 Z"/></g>
<g><path style="opacity:1" fill="#4eb47f" d="M 262.5,326.5 C 259.939,333.715 256.939,340.715 253.5,347.5C 241.182,349.678 228.849,350.344 216.5,349.5C 219.301,343.111 222.301,336.777 225.5,330.5C 237.964,330.287 250.298,328.954 262.5,326.5 Z"/></g>
</svg>
